# Rhino

g object_1
v 0.6000000238418579 0.5 -0.5
v 0.6000000238418579 0.5 0.5
v 0.6000000238418579 -0.5 -0.5
v 0.6000000238418579 -0.5 0.5
v 0.6000000238418579 -0.5 -0.5
v 0.6000000238418579 -0.5 0.5
v 1 0 -0.5
v 1 0 0.5
v 1 0 -0.5
v 1 0 0.5
v 0.6000000238418579 0.5 -0.5
v 0.6000000238418579 0.5 0.5
v 0.6000000238418579 0.5 -0.5
v 0.6000000238418579 -0.5 -0.5
v 1 0 -0.5
v 0.6000000238418579 0.5 0.5
v 0.6000000238418579 -0.5 0.5
v 1 0 0.5
vt 0 0
vt 0 0.7777771949768066
vt 0.4384763240814209 0
vt 0.4384763240814209 0.7777771949768066
vt 0.4384763240814209 0
vt 0.4384763240814209 0.7777771949768066
vt 0.7192381620407105 0
vt 0.7192381620407105 0.7777771949768066
vt 0.7192381620407105 0
vt 0.7192381620407105 0.7777771949768066
vt 1 0
vt 1 0.7777771949768066
vt 0 1
vt 0.4384763240814209 1
vt 0.2192381620407105 0.7777779698371887
vt 0 0.7777779698371887
vt 0.4384763240814209 0.7777779698371887
vt 0.2192381620407105 1
vn -1 0 0
vn -1 0 0
vn -1 0 0
vn -1 0 0
vn 0.7808688282966614 -0.6246950626373291 0
vn 0.7808688282966614 -0.6246950626373291 0
vn 0.7808688282966614 -0.6246950626373291 0
vn 0.7808688282966614 -0.6246950626373291 0
vn 0.7808688282966614 0.6246950626373291 0
vn 0.7808688282966614 0.6246950626373291 0
vn 0.7808688282966614 0.6246950626373291 0
vn 0.7808688282966614 0.6246950626373291 0
vn 0 0 -1
vn 0 0 -1
vn 0 0 -1
vn 0 0 1
vn 0 0 1
vn 0 0 1
f 1/1/1 3/3/3 4/4/4 2/2/2
f 5/5/5 7/7/7 8/8/8 6/6/6
f 9/9/9 11/11/11 12/12/12 10/10/10
f 13/13/13 15/15/15 14/14/14
f 16/16/16 17/17/17 18/18/18
